<svg width="1209" height="514" viewBox="0 0 1209 514" fill="none" xmlns="http://www.w3.org/2000/svg">
<path d="M164.062 213.574C173.047 218.262 182.031 223.34 191.016 228.809C200.391 234.277 208.984 239.551 216.797 244.629C224.609 249.316 231.055 253.809 236.133 258.105C241.602 262.012 245.117 265.137 246.68 267.48C248.633 270.605 249.609 275.488 249.609 282.129C249.609 288.379 249.023 295.41 247.852 303.223C247.07 310.645 245.703 318.066 243.75 325.488C241.797 332.52 239.648 338.184 237.305 342.48C234.57 347.949 228.32 354.98 218.555 363.574C209.18 372.168 198.633 380.762 186.914 389.355C175.195 397.949 163.672 405.566 152.344 412.207C141.406 418.848 133.008 422.949 127.148 424.512C122.852 425.684 116.406 426.855 107.812 428.027C99.6094 429.199 91.0156 430.176 82.0312 430.957C73.0469 431.738 64.8438 432.324 57.4219 432.715C50.3906 432.715 46.0938 432.324 44.5312 431.543C41.4062 429.59 38.6719 426.66 36.3281 422.754C34.375 418.848 33.3984 413.77 33.3984 407.52C34.1797 393.848 35.7422 384.473 38.0859 379.395C38.8672 378.223 39.8438 377.637 41.0156 377.637C42.1875 377.246 44.1406 377.051 46.875 377.051C49.6094 377.051 53.125 377.051 57.4219 377.051C61.7188 377.051 67.3828 376.855 74.4141 376.465C72.4609 356.543 70.7031 337.598 69.1406 319.629C67.5781 301.66 66.2109 285.84 65.0391 272.168C63.4766 256.152 62.3047 241.113 61.5234 227.051C60.7422 213.379 59.5703 198.145 58.0078 181.348C56.8359 166.895 55.4688 150.098 53.9062 130.957C52.3438 111.816 50.5859 91.1133 48.6328 68.8477C45.1172 68.8477 41.0156 68.8477 36.3281 68.8477C31.6406 68.8477 26.9531 68.8477 22.2656 68.8477C17.9688 68.457 14.2578 68.0664 11.1328 67.6758C7.61719 66.8945 5.46875 65.918 4.6875 64.7461C3.125 62.4023 1.95312 58.1055 1.17188 51.8555C0.390625 45.2148 0 38.7695 0 32.5195C0 25.8789 1.17188 19.4336 3.51562 13.1836C5.85938 6.54297 8.59375 2.24609 11.7188 0.292969C12.5 -0.0976562 15.625 -0.0976562 21.0938 0.292969C26.5625 0.292969 33.2031 0.878906 41.0156 2.05078C48.8281 2.83203 57.2266 4.00391 66.2109 5.56641C75.5859 6.73828 84.375 8.10547 92.5781 9.66797C100.781 10.8398 108.008 12.0117 114.258 13.1836C120.508 14.3555 124.805 15.1367 127.148 15.5273C131.055 16.3086 138.477 18.457 149.414 21.9727C160.742 25.0977 172.852 28.8086 185.742 33.1055C198.633 37.4023 210.938 42.2852 222.656 47.7539C234.375 52.832 242.578 57.9102 247.266 62.9883C249.219 64.9414 250.977 70.4102 252.539 79.3945C254.492 88.3789 255.859 98.3398 256.641 109.277C257.812 120.215 258.203 130.566 257.812 140.332C257.812 149.707 256.836 155.957 254.883 159.082C253.32 161.426 247.852 165.527 238.477 171.387C229.102 177.246 218.75 183.301 207.422 189.551C194.531 196.582 180.078 204.59 164.062 213.574ZM119.531 201.855C124.609 199.512 131.445 194.824 140.039 187.793C149.023 180.762 157.812 172.949 166.406 164.355C175.391 155.371 183.008 146.387 189.258 137.402C195.898 128.027 199.219 120.02 199.219 113.379C199.219 111.426 197.07 108.887 192.773 105.762C188.867 102.637 183.398 99.5117 176.367 96.3867C169.336 93.2617 160.938 90.1367 151.172 87.0117C141.797 83.4961 131.641 80.3711 120.703 77.6367L119.531 201.855ZM118.945 370.02C129.883 367.676 140.234 363.965 150 358.887C159.766 353.809 168.359 348.34 175.781 342.48C183.203 336.23 189.062 329.98 193.359 323.73C197.656 317.48 199.805 311.816 199.805 306.738C199.805 301.66 196.484 295.996 189.844 289.746C183.594 283.496 175.977 277.246 166.992 270.996C158.398 264.746 149.609 259.082 140.625 254.004C131.641 248.926 124.609 245.215 119.531 242.871L118.945 370.02Z" fill="white"/>
<path d="M345.398 439.746C342.664 440.527 339.539 439.551 336.023 436.816C332.508 434.082 328.992 430.762 325.477 426.855C322.352 422.559 319.617 418.066 317.273 413.379C314.93 408.691 313.367 404.785 312.586 401.66C309.852 367.285 307.508 336.621 305.555 309.668C303.992 282.324 302.625 258.105 301.453 237.012C300.281 215.918 299.305 197.754 298.523 182.52C298.133 166.895 297.938 153.613 297.938 142.676C297.547 117.285 297.938 99.707 299.109 89.9414C300.281 82.9102 303.406 75.8789 308.484 68.8477C313.953 61.8164 319.617 55.7617 325.477 50.6836C331.727 45.6055 337.391 41.6992 342.469 38.9648C347.938 36.2305 351.453 35.4492 353.016 36.6211C354.578 37.793 355.75 44.4336 356.531 56.543C357.312 68.2617 357.898 83.6914 358.289 102.832C358.68 121.973 358.68 143.457 358.289 167.285C358.289 191.113 357.898 215.527 357.117 240.527C356.727 265.527 356.141 289.941 355.359 313.77C354.578 337.598 353.602 358.887 352.43 377.637C351.258 395.996 350.086 410.84 348.914 422.168C347.742 433.496 346.57 439.355 345.398 439.746Z" fill="white"/>
<path d="M540.211 122.754C542.945 125.098 545.484 129.59 547.828 136.23C550.562 142.871 552.906 150.879 554.859 160.254C556.812 169.629 558.57 179.785 560.133 190.723C561.695 201.66 563.062 212.402 564.234 222.949C565.406 233.496 566.188 243.457 566.578 252.832C567.359 261.816 567.945 269.238 568.336 275.098C568.727 282.129 568.922 289.551 568.922 297.363C569.312 304.785 569.312 312.012 568.922 319.043C568.922 325.684 568.531 331.738 567.75 337.207C567.359 342.676 566.578 346.777 565.406 349.512C563.062 355.371 558.961 359.473 553.102 361.816C547.633 363.77 541.383 365.137 534.352 365.918C530.836 366.309 524.781 366.504 516.188 366.504C507.984 366.113 499 365.723 489.234 365.332C479.859 364.551 470.875 363.77 462.281 362.988C453.688 362.207 447.242 361.426 442.945 360.645C434.352 358.691 428.102 356.152 424.195 353.027C420.68 349.902 417.164 345.41 413.648 339.551C412.477 337.207 411.5 331.348 410.719 321.973C409.938 312.207 409.352 300.684 408.961 287.402C408.961 273.73 409.156 259.082 409.547 243.457C409.938 227.832 410.523 212.988 411.305 198.926C412.477 184.863 413.648 172.559 414.82 162.012C416.383 151.465 418.336 144.434 420.68 140.918C424.586 135.449 431.227 130.371 440.602 125.684C450.367 120.996 459.156 117.285 466.969 114.551C470.875 113.379 475.953 112.598 482.203 112.207C488.844 111.426 495.68 111.426 502.711 112.207C510.133 112.598 517.164 113.77 523.805 115.723C530.445 117.285 535.914 119.629 540.211 122.754ZM507.398 304.395C508.18 302.832 508.961 298.145 509.742 290.332C510.914 282.129 511.695 272.363 512.086 261.035C512.867 249.707 513.258 237.598 513.258 224.707C513.648 211.816 513.844 199.902 513.844 188.965C513.844 178.027 513.453 168.848 512.672 161.426C511.891 153.613 510.914 149.121 509.742 147.949C507.789 146.387 504.859 145.801 500.953 146.191C497.438 146.191 493.727 146.777 489.82 147.949C485.914 148.73 482.398 149.902 479.273 151.465C476.148 152.637 474 153.809 472.828 154.98C467.75 159.277 465.016 166.309 464.625 176.074C464.625 178.809 464.234 186.621 463.453 199.512C463.062 212.012 462.867 225.684 462.867 240.527C462.867 254.98 463.062 268.457 463.453 280.957C464.234 293.457 465.602 301.074 467.555 303.809C469.508 306.543 472.242 308.691 475.758 310.254C479.664 311.426 483.57 312.012 487.477 312.012C491.773 312.012 495.68 311.426 499.195 310.254C503.102 308.691 505.836 306.738 507.398 304.395Z" fill="white"/>
<path d="M760.219 462.012C759.438 464.355 757.094 468.066 753.188 473.145C749.281 478.223 744.594 483.496 739.125 488.965C733.656 494.434 728.188 499.316 722.719 503.613C717.25 507.91 712.758 510.645 709.242 511.816C701.43 514.16 693.031 513.574 684.047 510.059C675.453 506.934 667.055 502.637 658.852 497.168C651.039 491.699 644.203 486.035 638.344 480.176C632.484 474.707 628.773 470.605 627.211 467.871C626.039 465.137 624.867 461.426 623.695 456.738C622.914 452.051 622.328 447.363 621.938 442.676C621.547 437.988 621.547 434.082 621.938 430.957C622.719 427.441 624.086 425.684 626.039 425.684C627.992 425.684 632.484 427.637 639.516 431.543C646.938 435.059 654.555 438.77 662.367 442.676C670.57 446.582 678.188 449.707 685.219 452.051C692.25 454.395 696.547 454.004 698.109 450.879C699.672 448.145 701.039 440.527 702.211 428.027C703.773 415.137 705.531 399.512 707.484 381.152C706.703 381.152 705.922 381.348 705.141 381.738C704.75 381.738 704.164 381.738 703.383 381.738C699.867 382.91 694.984 383.496 688.734 383.496C682.484 383.496 675.844 383.105 668.812 382.324C662.172 381.543 655.531 380.176 648.891 378.223C642.641 375.879 637.562 372.949 633.656 369.434C632.094 367.871 630.336 365.527 628.383 362.402C626.82 358.887 625.648 354.395 624.867 348.926C623.695 346.582 621.742 339.941 619.008 329.004C616.273 317.676 613.539 304.98 610.805 290.918C608.07 276.465 605.531 262.012 603.188 247.559C601.234 233.105 600.648 221.582 601.43 212.988C601.82 204.395 603.383 195.605 606.117 186.621C608.852 177.246 611.977 168.457 615.492 160.254C619.398 152.051 623.5 145.02 627.797 139.16C632.094 132.91 636.391 128.613 640.688 126.27C650.062 121.582 661.781 120.605 675.844 123.34C689.906 126.074 704.945 131.348 720.961 139.16C721.352 135.254 723.109 130.957 726.234 126.27C729.359 121.582 732.875 117.48 736.781 113.965C741.078 110.059 745.375 107.324 749.672 105.762C753.969 103.809 757.289 103.613 759.633 105.176C760.805 105.957 761.781 111.426 762.562 121.582C763.344 131.348 763.93 144.238 764.32 160.254C765.102 175.879 765.492 193.848 765.492 214.16C765.883 234.082 765.883 254.785 765.492 276.27C765.492 297.363 765.297 318.262 764.906 338.965C764.906 359.668 764.516 378.613 763.734 395.801C763.344 412.988 762.758 427.441 761.977 439.16C761.586 450.879 761 458.496 760.219 462.012ZM719.203 183.691C716.859 182.129 714.125 180.566 711 179.004C708.266 177.441 705.141 175.879 701.625 174.316C698.109 172.754 694.203 171.387 689.906 170.215C687.953 169.434 685.219 170.215 681.703 172.559C678.578 174.902 675.258 178.223 671.742 182.52C668.617 186.816 665.883 192.09 663.539 198.34C661.195 204.199 660.023 210.449 660.023 217.09C660.023 217.871 660.219 221.582 660.609 228.223C661 234.863 661.586 242.871 662.367 252.246C663.148 261.621 663.93 271.777 664.711 282.715C665.492 293.652 666.273 303.809 667.055 313.184C668.227 322.559 669.203 330.566 669.984 337.207C670.766 343.457 671.352 346.777 671.742 347.168C673.305 348.73 675.453 349.512 678.188 349.512C681.312 349.512 684.242 349.121 686.977 348.34C690.102 347.559 692.836 346.582 695.18 345.41C697.523 344.238 699.281 343.262 700.453 342.48C705.531 338.965 708.656 332.129 709.828 321.973C710.609 321.191 711 319.043 711 315.527C712.172 289.746 713.344 266.504 714.516 245.801C715.688 224.707 717.25 204.004 719.203 183.691Z" fill="white"/>
<path d="M996.047 32.5195C996.047 33.6914 994.094 39.1602 990.188 48.9258C986.672 58.6914 981.789 71.1914 975.539 86.4258C969.289 101.66 962.062 119.043 953.859 138.574C945.656 158.105 937.258 178.027 928.664 198.34C920.07 218.652 911.477 238.965 902.883 259.277C894.289 279.199 886.281 297.363 878.859 313.77C871.828 330.176 865.773 344.043 860.695 355.371C856.008 366.699 852.883 374.121 851.32 377.637C891.555 373.73 920.07 371.387 936.867 370.605C954.055 369.434 963.234 369.434 964.406 370.605C965.969 372.168 965.969 375.879 964.406 381.738C962.844 387.207 960.5 393.457 957.375 400.488C954.25 407.129 950.93 413.574 947.414 419.824C943.898 425.684 940.969 429.98 938.625 432.715C938.234 433.496 935.109 434.277 929.25 435.059C923.781 435.449 916.945 435.84 908.742 436.23C900.93 436.621 892.141 437.012 882.375 437.402C873 437.793 864.016 438.184 855.422 438.574C846.828 438.574 839.211 438.574 832.57 438.574C826.32 438.574 822.219 438.379 820.266 437.988C817.531 437.598 814.797 436.035 812.062 433.301C809.719 430.176 807.375 426.66 805.031 422.754C803.078 418.848 801.32 414.746 799.758 410.449C798.195 405.762 797.219 401.66 796.828 398.145C796.438 394.629 798.195 385.84 802.102 371.777C806.398 357.324 811.867 340.137 818.508 320.215C825.539 300.293 833.156 278.809 841.359 255.762C849.562 232.715 857.57 210.645 865.383 189.551C873.586 168.066 880.812 148.926 887.062 132.129C893.312 114.941 897.805 102.441 900.539 94.6289C881.008 95.8008 864.797 96.9727 851.906 98.1445C839.406 98.9258 829.445 99.5117 822.023 99.9023C814.602 100.293 809.328 100.488 806.203 100.488C803.078 100.488 801.125 99.9023 800.344 98.7305C798.391 96.3867 796.438 91.6992 794.484 84.668C792.922 77.2461 791.75 69.4336 790.969 61.2305C790.188 52.6367 789.992 44.8242 790.383 37.793C790.773 30.3711 791.945 25.6836 793.898 23.7305C795.07 22.5586 800.734 21.582 810.891 20.8008C821.438 19.6289 834.133 18.8477 848.977 18.457C863.82 18.0664 879.641 18.0664 896.438 18.457C913.625 18.457 929.445 19.043 943.898 20.2148C958.742 20.9961 971.047 22.5586 980.812 24.9023C990.578 26.8555 995.656 29.3945 996.047 32.5195Z" fill="white"/>
<path d="M1208.13 13.1836C1208.91 15.5273 1209.11 24.707 1208.72 40.7227C1208.72 56.3477 1208.13 75.6836 1206.96 98.7305C1206.18 121.387 1205.01 145.801 1203.45 171.973C1201.88 197.754 1200.12 222.168 1198.17 245.215C1196.61 267.871 1194.85 287.207 1192.9 303.223C1191.34 318.848 1189.77 327.832 1188.21 330.176C1184.3 336.426 1178.45 340.137 1170.63 341.309C1162.82 342.09 1156.96 342.09 1153.05 341.309C1151.88 340.918 1150.71 336.621 1149.54 328.418C1148.37 320.215 1147.2 309.277 1146.02 295.605C1145.24 281.934 1144.46 266.309 1143.68 248.73C1142.9 231.152 1142.31 213.184 1141.92 194.824C1141.53 176.074 1141.14 157.715 1140.75 139.746C1140.36 121.387 1140.16 104.785 1140.16 89.9414C1140.16 75.0977 1140.36 62.5977 1140.75 52.4414C1141.14 42.2852 1141.73 35.8398 1142.51 33.1055C1144.07 27.6367 1147.98 22.7539 1154.23 18.457C1160.48 14.1602 1167.31 11.0352 1174.73 9.08203C1182.16 6.73828 1188.99 5.95703 1195.24 6.73828C1201.88 7.12891 1206.18 9.27734 1208.13 13.1836ZM1198.17 382.324C1199.73 385.059 1200.32 388.965 1199.93 394.043C1199.93 398.73 1199.34 403.809 1198.17 409.277C1197.39 414.355 1196.02 419.434 1194.07 424.512C1192.51 429.199 1190.75 433.105 1188.8 436.23C1187.23 438.574 1185.09 440.527 1182.35 442.09C1179.62 443.652 1176.69 444.629 1173.56 445.02C1170.44 445.801 1167.51 446.191 1164.77 446.191C1162.04 446.191 1159.89 446.191 1158.33 446.191C1155.98 445.801 1153.45 444.043 1150.71 440.918C1148.37 437.793 1146.22 434.082 1144.27 429.785C1142.7 425.098 1141.53 420.215 1140.75 415.137C1139.97 409.668 1140.16 404.59 1141.34 399.902C1142.51 395.605 1145.83 391.699 1151.3 388.184C1156.77 384.277 1162.62 381.348 1168.88 379.395C1175.52 377.441 1181.57 376.66 1187.04 377.051C1192.9 377.051 1196.61 378.809 1198.17 382.324Z" fill="white"/>
</svg>
