<svg width="1210" height="514" viewBox="0 0 1210 514" fill="none" xmlns="http://www.w3.org/2000/svg">
<path d="M164.898 214.312C173.883 219 182.867 224.078 191.852 229.547C201.227 235.016 209.82 240.289 217.633 245.367C225.445 250.055 231.891 254.547 236.969 258.844C242.438 262.75 245.953 265.875 247.516 268.219C249.469 271.344 250.445 276.227 250.445 282.867C250.445 289.117 249.859 296.148 248.688 303.961C247.906 311.383 246.539 318.805 244.586 326.227C242.633 333.258 240.484 338.922 238.141 343.219C235.406 348.688 229.156 355.719 219.391 364.312C210.016 372.906 199.469 381.5 187.75 390.094C176.031 398.688 164.508 406.305 153.18 412.945C142.242 419.586 133.844 423.688 127.984 425.25C123.688 426.422 117.242 427.594 108.648 428.766C100.445 429.938 91.8516 430.914 82.8672 431.695C73.8828 432.477 65.6797 433.062 58.2578 433.453C51.2266 433.453 46.9297 433.062 45.3672 432.281C42.2422 430.328 39.5078 427.398 37.1641 423.492C35.2109 419.586 34.2344 414.508 34.2344 408.258C35.0156 394.586 36.5781 385.211 38.9219 380.133C39.7031 378.961 40.6797 378.375 41.8516 378.375C43.0234 377.984 44.9766 377.789 47.7109 377.789C50.4453 377.789 53.9609 377.789 58.2578 377.789C62.5547 377.789 68.2188 377.594 75.25 377.203C73.2969 357.281 71.5391 338.336 69.9766 320.367C68.4141 302.398 67.0469 286.578 65.875 272.906C64.3125 256.891 63.1406 241.852 62.3594 227.789C61.5781 214.117 60.4062 198.883 58.8438 182.086C57.6719 167.633 56.3047 150.836 54.7422 131.695C53.1797 112.555 51.4219 91.8516 49.4688 69.5859C45.9531 69.5859 41.8516 69.5859 37.1641 69.5859C32.4766 69.5859 27.7891 69.5859 23.1016 69.5859C18.8047 69.1953 15.0938 68.8047 11.9688 68.4141C8.45312 67.6328 6.30469 66.6562 5.52344 65.4844C3.96094 63.1406 2.78906 58.8438 2.00781 52.5938C1.22656 45.9531 0.835938 39.5078 0.835938 33.2578C0.835938 26.6172 2.00781 20.1719 4.35156 13.9219C6.69531 7.28125 9.42969 2.98438 12.5547 1.03125C13.3359 0.640625 16.4609 0.640625 21.9297 1.03125C27.3984 1.03125 34.0391 1.61719 41.8516 2.78906C49.6641 3.57031 58.0625 4.74219 67.0469 6.30469C76.4219 7.47656 85.2109 8.84375 93.4141 10.4062C101.617 11.5781 108.844 12.75 115.094 13.9219C121.344 15.0938 125.641 15.875 127.984 16.2656C131.891 17.0469 139.312 19.1953 150.25 22.7109C161.578 25.8359 173.688 29.5469 186.578 33.8438C199.469 38.1406 211.773 43.0234 223.492 48.4922C235.211 53.5703 243.414 58.6484 248.102 63.7266C250.055 65.6797 251.812 71.1484 253.375 80.1328C255.328 89.1172 256.695 99.0781 257.477 110.016C258.648 120.953 259.039 131.305 258.648 141.07C258.648 150.445 257.672 156.695 255.719 159.82C254.156 162.164 248.688 166.266 239.312 172.125C229.938 177.984 219.586 184.039 208.258 190.289C195.367 197.32 180.914 205.328 164.898 214.312ZM120.367 202.594C125.445 200.25 132.281 195.562 140.875 188.531C149.859 181.5 158.648 173.688 167.242 165.094C176.227 156.109 183.844 147.125 190.094 138.141C196.734 128.766 200.055 120.758 200.055 114.117C200.055 112.164 197.906 109.625 193.609 106.5C189.703 103.375 184.234 100.25 177.203 97.125C170.172 94 161.773 90.875 152.008 87.75C142.633 84.2344 132.477 81.1094 121.539 78.375L120.367 202.594ZM119.781 370.758C130.719 368.414 141.07 364.703 150.836 359.625C160.602 354.547 169.195 349.078 176.617 343.219C184.039 336.969 189.898 330.719 194.195 324.469C198.492 318.219 200.641 312.555 200.641 307.477C200.641 302.398 197.32 296.734 190.68 290.484C184.43 284.234 176.812 277.984 167.828 271.734C159.234 265.484 150.445 259.82 141.461 254.742C132.477 249.664 125.445 245.953 120.367 243.609L119.781 370.758Z" fill="black"/>
<path d="M346.234 440.484C343.5 441.266 340.375 440.289 336.859 437.555C333.344 434.82 329.828 431.5 326.312 427.594C323.188 423.297 320.453 418.805 318.109 414.117C315.766 409.43 314.203 405.523 313.422 402.398C310.688 368.023 308.344 337.359 306.391 310.406C304.828 283.062 303.461 258.844 302.289 237.75C301.117 216.656 300.141 198.492 299.359 183.258C298.969 167.633 298.773 154.352 298.773 143.414C298.383 118.023 298.773 100.445 299.945 90.6797C301.117 83.6484 304.242 76.6172 309.32 69.5859C314.789 62.5547 320.453 56.5 326.312 51.4219C332.562 46.3438 338.227 42.4375 343.305 39.7031C348.773 36.9688 352.289 36.1875 353.852 37.3594C355.414 38.5312 356.586 45.1719 357.367 57.2812C358.148 69 358.734 84.4297 359.125 103.57C359.516 122.711 359.516 144.195 359.125 168.023C359.125 191.852 358.734 216.266 357.953 241.266C357.562 266.266 356.977 290.68 356.195 314.508C355.414 338.336 354.438 359.625 353.266 378.375C352.094 396.734 350.922 411.578 349.75 422.906C348.578 434.234 347.406 440.094 346.234 440.484Z" fill="black"/>
<path d="M541.047 123.492C543.781 125.836 546.32 130.328 548.664 136.969C551.398 143.609 553.742 151.617 555.695 160.992C557.648 170.367 559.406 180.523 560.969 191.461C562.531 202.398 563.898 213.141 565.07 223.688C566.242 234.234 567.023 244.195 567.414 253.57C568.195 262.555 568.781 269.977 569.172 275.836C569.562 282.867 569.758 290.289 569.758 298.102C570.148 305.523 570.148 312.75 569.758 319.781C569.758 326.422 569.367 332.477 568.586 337.945C568.195 343.414 567.414 347.516 566.242 350.25C563.898 356.109 559.797 360.211 553.938 362.555C548.469 364.508 542.219 365.875 535.188 366.656C531.672 367.047 525.617 367.242 517.023 367.242C508.82 366.852 499.836 366.461 490.07 366.07C480.695 365.289 471.711 364.508 463.117 363.727C454.523 362.945 448.078 362.164 443.781 361.383C435.188 359.43 428.938 356.891 425.031 353.766C421.516 350.641 418 346.148 414.484 340.289C413.312 337.945 412.336 332.086 411.555 322.711C410.773 312.945 410.188 301.422 409.797 288.141C409.797 274.469 409.992 259.82 410.383 244.195C410.773 228.57 411.359 213.727 412.141 199.664C413.312 185.602 414.484 173.297 415.656 162.75C417.219 152.203 419.172 145.172 421.516 141.656C425.422 136.188 432.062 131.109 441.438 126.422C451.203 121.734 459.992 118.023 467.805 115.289C471.711 114.117 476.789 113.336 483.039 112.945C489.68 112.164 496.516 112.164 503.547 112.945C510.969 113.336 518 114.508 524.641 116.461C531.281 118.023 536.75 120.367 541.047 123.492ZM508.234 305.133C509.016 303.57 509.797 298.883 510.578 291.07C511.75 282.867 512.531 273.102 512.922 261.773C513.703 250.445 514.094 238.336 514.094 225.445C514.484 212.555 514.68 200.641 514.68 189.703C514.68 178.766 514.289 169.586 513.508 162.164C512.727 154.352 511.75 149.859 510.578 148.688C508.625 147.125 505.695 146.539 501.789 146.93C498.273 146.93 494.562 147.516 490.656 148.688C486.75 149.469 483.234 150.641 480.109 152.203C476.984 153.375 474.836 154.547 473.664 155.719C468.586 160.016 465.852 167.047 465.461 176.812C465.461 179.547 465.07 187.359 464.289 200.25C463.898 212.75 463.703 226.422 463.703 241.266C463.703 255.719 463.898 269.195 464.289 281.695C465.07 294.195 466.438 301.812 468.391 304.547C470.344 307.281 473.078 309.43 476.594 310.992C480.5 312.164 484.406 312.75 488.312 312.75C492.609 312.75 496.516 312.164 500.031 310.992C503.938 309.43 506.672 307.477 508.234 305.133Z" fill="black"/>
<path d="M761.055 462.75C760.273 465.094 757.93 468.805 754.023 473.883C750.117 478.961 745.43 484.234 739.961 489.703C734.492 495.172 729.023 500.055 723.555 504.352C718.086 508.648 713.594 511.383 710.078 512.555C702.266 514.898 693.867 514.312 684.883 510.797C676.289 507.672 667.891 503.375 659.688 497.906C651.875 492.438 645.039 486.773 639.18 480.914C633.32 475.445 629.609 471.344 628.047 468.609C626.875 465.875 625.703 462.164 624.531 457.477C623.75 452.789 623.164 448.102 622.773 443.414C622.383 438.727 622.383 434.82 622.773 431.695C623.555 428.18 624.922 426.422 626.875 426.422C628.828 426.422 633.32 428.375 640.352 432.281C647.773 435.797 655.391 439.508 663.203 443.414C671.406 447.32 679.023 450.445 686.055 452.789C693.086 455.133 697.383 454.742 698.945 451.617C700.508 448.883 701.875 441.266 703.047 428.766C704.609 415.875 706.367 400.25 708.32 381.891C707.539 381.891 706.758 382.086 705.977 382.477C705.586 382.477 705 382.477 704.219 382.477C700.703 383.648 695.82 384.234 689.57 384.234C683.32 384.234 676.68 383.844 669.648 383.062C663.008 382.281 656.367 380.914 649.727 378.961C643.477 376.617 638.398 373.688 634.492 370.172C632.93 368.609 631.172 366.266 629.219 363.141C627.656 359.625 626.484 355.133 625.703 349.664C624.531 347.32 622.578 340.68 619.844 329.742C617.109 318.414 614.375 305.719 611.641 291.656C608.906 277.203 606.367 262.75 604.023 248.297C602.07 233.844 601.484 222.32 602.266 213.727C602.656 205.133 604.219 196.344 606.953 187.359C609.688 177.984 612.812 169.195 616.328 160.992C620.234 152.789 624.336 145.758 628.633 139.898C632.93 133.648 637.227 129.352 641.523 127.008C650.898 122.32 662.617 121.344 676.68 124.078C690.742 126.812 705.781 132.086 721.797 139.898C722.188 135.992 723.945 131.695 727.07 127.008C730.195 122.32 733.711 118.219 737.617 114.703C741.914 110.797 746.211 108.062 750.508 106.5C754.805 104.547 758.125 104.352 760.469 105.914C761.641 106.695 762.617 112.164 763.398 122.32C764.18 132.086 764.766 144.977 765.156 160.992C765.938 176.617 766.328 194.586 766.328 214.898C766.719 234.82 766.719 255.523 766.328 277.008C766.328 298.102 766.133 319 765.742 339.703C765.742 360.406 765.352 379.352 764.57 396.539C764.18 413.727 763.594 428.18 762.812 439.898C762.422 451.617 761.836 459.234 761.055 462.75ZM720.039 184.43C717.695 182.867 714.961 181.305 711.836 179.742C709.102 178.18 705.977 176.617 702.461 175.055C698.945 173.492 695.039 172.125 690.742 170.953C688.789 170.172 686.055 170.953 682.539 173.297C679.414 175.641 676.094 178.961 672.578 183.258C669.453 187.555 666.719 192.828 664.375 199.078C662.031 204.938 660.859 211.188 660.859 217.828C660.859 218.609 661.055 222.32 661.445 228.961C661.836 235.602 662.422 243.609 663.203 252.984C663.984 262.359 664.766 272.516 665.547 283.453C666.328 294.391 667.109 304.547 667.891 313.922C669.062 323.297 670.039 331.305 670.82 337.945C671.602 344.195 672.188 347.516 672.578 347.906C674.141 349.469 676.289 350.25 679.023 350.25C682.148 350.25 685.078 349.859 687.812 349.078C690.938 348.297 693.672 347.32 696.016 346.148C698.359 344.977 700.117 344 701.289 343.219C706.367 339.703 709.492 332.867 710.664 322.711C711.445 321.93 711.836 319.781 711.836 316.266C713.008 290.484 714.18 267.242 715.352 246.539C716.523 225.445 718.086 204.742 720.039 184.43Z" fill="black"/>
<path d="M996.883 33.2578C996.883 34.4297 994.93 39.8984 991.023 49.6641C987.508 59.4297 982.625 71.9297 976.375 87.1641C970.125 102.398 962.898 119.781 954.695 139.312C946.492 158.844 938.094 178.766 929.5 199.078C920.906 219.391 912.312 239.703 903.719 260.016C895.125 279.938 887.117 298.102 879.695 314.508C872.664 330.914 866.609 344.781 861.531 356.109C856.844 367.438 853.719 374.859 852.156 378.375C892.391 374.469 920.906 372.125 937.703 371.344C954.891 370.172 964.07 370.172 965.242 371.344C966.805 372.906 966.805 376.617 965.242 382.477C963.68 387.945 961.336 394.195 958.211 401.227C955.086 407.867 951.766 414.312 948.25 420.562C944.734 426.422 941.805 430.719 939.461 433.453C939.07 434.234 935.945 435.016 930.086 435.797C924.617 436.188 917.781 436.578 909.578 436.969C901.766 437.359 892.977 437.75 883.211 438.141C873.836 438.531 864.852 438.922 856.258 439.312C847.664 439.312 840.047 439.312 833.406 439.312C827.156 439.312 823.055 439.117 821.102 438.727C818.367 438.336 815.633 436.773 812.898 434.039C810.555 430.914 808.211 427.398 805.867 423.492C803.914 419.586 802.156 415.484 800.594 411.188C799.031 406.5 798.055 402.398 797.664 398.883C797.273 395.367 799.031 386.578 802.938 372.516C807.234 358.062 812.703 340.875 819.344 320.953C826.375 301.031 833.992 279.547 842.195 256.5C850.398 233.453 858.406 211.383 866.219 190.289C874.422 168.805 881.648 149.664 887.898 132.867C894.148 115.68 898.641 103.18 901.375 95.3672C881.844 96.5391 865.633 97.7109 852.742 98.8828C840.242 99.6641 830.281 100.25 822.859 100.641C815.438 101.031 810.164 101.227 807.039 101.227C803.914 101.227 801.961 100.641 801.18 99.4688C799.227 97.125 797.273 92.4375 795.32 85.4062C793.758 77.9844 792.586 70.1719 791.805 61.9688C791.023 53.375 790.828 45.5625 791.219 38.5312C791.609 31.1094 792.781 26.4219 794.734 24.4688C795.906 23.2969 801.57 22.3203 811.727 21.5391C822.273 20.3672 834.969 19.5859 849.812 19.1953C864.656 18.8047 880.477 18.8047 897.273 19.1953C914.461 19.1953 930.281 19.7812 944.734 20.9531C959.578 21.7344 971.883 23.2969 981.648 25.6406C991.414 27.5938 996.492 30.1328 996.883 33.2578Z" fill="black"/>
<path d="M1208.97 13.9219C1209.75 16.2656 1209.95 25.4453 1209.55 41.4609C1209.55 57.0859 1208.97 76.4219 1207.8 99.4688C1207.02 122.125 1205.84 146.539 1204.28 172.711C1202.72 198.492 1200.96 222.906 1199.01 245.953C1197.45 268.609 1195.69 287.945 1193.73 303.961C1192.17 319.586 1190.61 328.57 1189.05 330.914C1185.14 337.164 1179.28 340.875 1171.47 342.047C1163.66 342.828 1157.8 342.828 1153.89 342.047C1152.72 341.656 1151.55 337.359 1150.38 329.156C1149.2 320.953 1148.03 310.016 1146.86 296.344C1146.08 282.672 1145.3 267.047 1144.52 249.469C1143.73 231.891 1143.15 213.922 1142.76 195.562C1142.37 176.812 1141.98 158.453 1141.59 140.484C1141.2 122.125 1141 105.523 1141 90.6797C1141 75.8359 1141.2 63.3359 1141.59 53.1797C1141.98 43.0234 1142.56 36.5781 1143.34 33.8438C1144.91 28.375 1148.81 23.4922 1155.06 19.1953C1161.31 14.8984 1168.15 11.7734 1175.57 9.82031C1182.99 7.47656 1189.83 6.69531 1196.08 7.47656C1202.72 7.86719 1207.02 10.0156 1208.97 13.9219ZM1199.01 383.062C1200.57 385.797 1201.16 389.703 1200.77 394.781C1200.77 399.469 1200.18 404.547 1199.01 410.016C1198.23 415.094 1196.86 420.172 1194.91 425.25C1193.34 429.938 1191.59 433.844 1189.63 436.969C1188.07 439.312 1185.92 441.266 1183.19 442.828C1180.45 444.391 1177.52 445.367 1174.4 445.758C1171.27 446.539 1168.34 446.93 1165.61 446.93C1162.88 446.93 1160.73 446.93 1159.16 446.93C1156.82 446.539 1154.28 444.781 1151.55 441.656C1149.2 438.531 1147.05 434.82 1145.1 430.523C1143.54 425.836 1142.37 420.953 1141.59 415.875C1140.8 410.406 1141 405.328 1142.17 400.641C1143.34 396.344 1146.66 392.438 1152.13 388.922C1157.6 385.016 1163.46 382.086 1169.71 380.133C1176.35 378.18 1182.41 377.398 1187.88 377.789C1193.73 377.789 1197.45 379.547 1199.01 383.062Z" fill="black"/>
</svg>
