<svg width="1229" height="534" viewBox="0 0 1229 534" fill="none" xmlns="http://www.w3.org/2000/svg">
<mask id="path-1-outside-1_19_14" maskUnits="userSpaceOnUse" x="0" y="0.738281" width="1229" height="534" fill="black">
<rect fill="white" y="0.738281" width="1229" height="534"/>
<path d="M174.062 224.312C183.047 229 192.031 234.078 201.016 239.547C210.391 245.016 218.984 250.289 226.797 255.367C234.609 260.055 241.055 264.547 246.133 268.844C251.602 272.75 255.117 275.875 256.68 278.219C258.633 281.344 259.609 286.227 259.609 292.867C259.609 299.117 259.023 306.148 257.852 313.961C257.07 321.383 255.703 328.805 253.75 336.227C251.797 343.258 249.648 348.922 247.305 353.219C244.57 358.688 238.32 365.719 228.555 374.312C219.18 382.906 208.633 391.5 196.914 400.094C185.195 408.688 173.672 416.305 162.344 422.945C151.406 429.586 143.008 433.688 137.148 435.25C132.852 436.422 126.406 437.594 117.812 438.766C109.609 439.938 101.016 440.914 92.0312 441.695C83.0469 442.477 74.8438 443.062 67.4219 443.453C60.3906 443.453 56.0938 443.062 54.5312 442.281C51.4062 440.328 48.6719 437.398 46.3281 433.492C44.375 429.586 43.3984 424.508 43.3984 418.258C44.1797 404.586 45.7422 395.211 48.0859 390.133C48.8672 388.961 49.8438 388.375 51.0156 388.375C52.1875 387.984 54.1406 387.789 56.875 387.789C59.6094 387.789 63.125 387.789 67.4219 387.789C71.7188 387.789 77.3828 387.594 84.4141 387.203C82.4609 367.281 80.7031 348.336 79.1406 330.367C77.5781 312.398 76.2109 296.578 75.0391 282.906C73.4766 266.891 72.3047 251.852 71.5234 237.789C70.7422 224.117 69.5703 208.883 68.0078 192.086C66.8359 177.633 65.4688 160.836 63.9062 141.695C62.3438 122.555 60.5859 101.852 58.6328 79.5859C55.1172 79.5859 51.0156 79.5859 46.3281 79.5859C41.6406 79.5859 36.9531 79.5859 32.2656 79.5859C27.9688 79.1953 24.2578 78.8047 21.1328 78.4141C17.6172 77.6328 15.4688 76.6562 14.6875 75.4844C13.125 73.1406 11.9531 68.8438 11.1719 62.5938C10.3906 55.9531 10 49.5078 10 43.2578C10 36.6172 11.1719 30.1719 13.5156 23.9219C15.8594 17.2812 18.5938 12.9844 21.7188 11.0312C22.5 10.6406 25.625 10.6406 31.0938 11.0312C36.5625 11.0312 43.2031 11.6172 51.0156 12.7891C58.8281 13.5703 67.2266 14.7422 76.2109 16.3047C85.5859 17.4766 94.375 18.8438 102.578 20.4062C110.781 21.5781 118.008 22.75 124.258 23.9219C130.508 25.0938 134.805 25.875 137.148 26.2656C141.055 27.0469 148.477 29.1953 159.414 32.7109C170.742 35.8359 182.852 39.5469 195.742 43.8438C208.633 48.1406 220.938 53.0234 232.656 58.4922C244.375 63.5703 252.578 68.6484 257.266 73.7266C259.219 75.6797 260.977 81.1484 262.539 90.1328C264.492 99.1172 265.859 109.078 266.641 120.016C267.812 130.953 268.203 141.305 267.812 151.07C267.812 160.445 266.836 166.695 264.883 169.82C263.32 172.164 257.852 176.266 248.477 182.125C239.102 187.984 228.75 194.039 217.422 200.289C204.531 207.32 190.078 215.328 174.062 224.312ZM129.531 212.594C134.609 210.25 141.445 205.562 150.039 198.531C159.023 191.5 167.812 183.688 176.406 175.094C185.391 166.109 193.008 157.125 199.258 148.141C205.898 138.766 209.219 130.758 209.219 124.117C209.219 122.164 207.07 119.625 202.773 116.5C198.867 113.375 193.398 110.25 186.367 107.125C179.336 104 170.938 100.875 161.172 97.75C151.797 94.2344 141.641 91.1094 130.703 88.375L129.531 212.594ZM128.945 380.758C139.883 378.414 150.234 374.703 160 369.625C169.766 364.547 178.359 359.078 185.781 353.219C193.203 346.969 199.062 340.719 203.359 334.469C207.656 328.219 209.805 322.555 209.805 317.477C209.805 312.398 206.484 306.734 199.844 300.484C193.594 294.234 185.977 287.984 176.992 281.734C168.398 275.484 159.609 269.82 150.625 264.742C141.641 259.664 134.609 255.953 129.531 253.609L128.945 380.758Z"/>
<path d="M355.398 450.484C352.664 451.266 349.539 450.289 346.023 447.555C342.508 444.82 338.992 441.5 335.477 437.594C332.352 433.297 329.617 428.805 327.273 424.117C324.93 419.43 323.367 415.523 322.586 412.398C319.852 378.023 317.508 347.359 315.555 320.406C313.992 293.062 312.625 268.844 311.453 247.75C310.281 226.656 309.305 208.492 308.523 193.258C308.133 177.633 307.938 164.352 307.938 153.414C307.547 128.023 307.938 110.445 309.109 100.68C310.281 93.6484 313.406 86.6172 318.484 79.5859C323.953 72.5547 329.617 66.5 335.477 61.4219C341.727 56.3438 347.391 52.4375 352.469 49.7031C357.938 46.9688 361.453 46.1875 363.016 47.3594C364.578 48.5312 365.75 55.1719 366.531 67.2812C367.312 79 367.898 94.4297 368.289 113.57C368.68 132.711 368.68 154.195 368.289 178.023C368.289 201.852 367.898 226.266 367.117 251.266C366.727 276.266 366.141 300.68 365.359 324.508C364.578 348.336 363.602 369.625 362.43 388.375C361.258 406.734 360.086 421.578 358.914 432.906C357.742 444.234 356.57 450.094 355.398 450.484Z"/>
<path d="M550.211 133.492C552.945 135.836 555.484 140.328 557.828 146.969C560.562 153.609 562.906 161.617 564.859 170.992C566.812 180.367 568.57 190.523 570.133 201.461C571.695 212.398 573.062 223.141 574.234 233.688C575.406 244.234 576.188 254.195 576.578 263.57C577.359 272.555 577.945 279.977 578.336 285.836C578.727 292.867 578.922 300.289 578.922 308.102C579.312 315.523 579.312 322.75 578.922 329.781C578.922 336.422 578.531 342.477 577.75 347.945C577.359 353.414 576.578 357.516 575.406 360.25C573.062 366.109 568.961 370.211 563.102 372.555C557.633 374.508 551.383 375.875 544.352 376.656C540.836 377.047 534.781 377.242 526.188 377.242C517.984 376.852 509 376.461 499.234 376.07C489.859 375.289 480.875 374.508 472.281 373.727C463.688 372.945 457.242 372.164 452.945 371.383C444.352 369.43 438.102 366.891 434.195 363.766C430.68 360.641 427.164 356.148 423.648 350.289C422.477 347.945 421.5 342.086 420.719 332.711C419.938 322.945 419.352 311.422 418.961 298.141C418.961 284.469 419.156 269.82 419.547 254.195C419.938 238.57 420.523 223.727 421.305 209.664C422.477 195.602 423.648 183.297 424.82 172.75C426.383 162.203 428.336 155.172 430.68 151.656C434.586 146.188 441.227 141.109 450.602 136.422C460.367 131.734 469.156 128.023 476.969 125.289C480.875 124.117 485.953 123.336 492.203 122.945C498.844 122.164 505.68 122.164 512.711 122.945C520.133 123.336 527.164 124.508 533.805 126.461C540.445 128.023 545.914 130.367 550.211 133.492ZM517.398 315.133C518.18 313.57 518.961 308.883 519.742 301.07C520.914 292.867 521.695 283.102 522.086 271.773C522.867 260.445 523.258 248.336 523.258 235.445C523.648 222.555 523.844 210.641 523.844 199.703C523.844 188.766 523.453 179.586 522.672 172.164C521.891 164.352 520.914 159.859 519.742 158.688C517.789 157.125 514.859 156.539 510.953 156.93C507.438 156.93 503.727 157.516 499.82 158.688C495.914 159.469 492.398 160.641 489.273 162.203C486.148 163.375 484 164.547 482.828 165.719C477.75 170.016 475.016 177.047 474.625 186.812C474.625 189.547 474.234 197.359 473.453 210.25C473.062 222.75 472.867 236.422 472.867 251.266C472.867 265.719 473.062 279.195 473.453 291.695C474.234 304.195 475.602 311.812 477.555 314.547C479.508 317.281 482.242 319.43 485.758 320.992C489.664 322.164 493.57 322.75 497.477 322.75C501.773 322.75 505.68 322.164 509.195 320.992C513.102 319.43 515.836 317.477 517.398 315.133Z"/>
<path d="M770.219 472.75C769.438 475.094 767.094 478.805 763.188 483.883C759.281 488.961 754.594 494.234 749.125 499.703C743.656 505.172 738.188 510.055 732.719 514.352C727.25 518.648 722.758 521.383 719.242 522.555C711.43 524.898 703.031 524.312 694.047 520.797C685.453 517.672 677.055 513.375 668.852 507.906C661.039 502.438 654.203 496.773 648.344 490.914C642.484 485.445 638.773 481.344 637.211 478.609C636.039 475.875 634.867 472.164 633.695 467.477C632.914 462.789 632.328 458.102 631.938 453.414C631.547 448.727 631.547 444.82 631.938 441.695C632.719 438.18 634.086 436.422 636.039 436.422C637.992 436.422 642.484 438.375 649.516 442.281C656.938 445.797 664.555 449.508 672.367 453.414C680.57 457.32 688.188 460.445 695.219 462.789C702.25 465.133 706.547 464.742 708.109 461.617C709.672 458.883 711.039 451.266 712.211 438.766C713.773 425.875 715.531 410.25 717.484 391.891C716.703 391.891 715.922 392.086 715.141 392.477C714.75 392.477 714.164 392.477 713.383 392.477C709.867 393.648 704.984 394.234 698.734 394.234C692.484 394.234 685.844 393.844 678.812 393.062C672.172 392.281 665.531 390.914 658.891 388.961C652.641 386.617 647.562 383.688 643.656 380.172C642.094 378.609 640.336 376.266 638.383 373.141C636.82 369.625 635.648 365.133 634.867 359.664C633.695 357.32 631.742 350.68 629.008 339.742C626.273 328.414 623.539 315.719 620.805 301.656C618.07 287.203 615.531 272.75 613.188 258.297C611.234 243.844 610.648 232.32 611.43 223.727C611.82 215.133 613.383 206.344 616.117 197.359C618.852 187.984 621.977 179.195 625.492 170.992C629.398 162.789 633.5 155.758 637.797 149.898C642.094 143.648 646.391 139.352 650.688 137.008C660.062 132.32 671.781 131.344 685.844 134.078C699.906 136.812 714.945 142.086 730.961 149.898C731.352 145.992 733.109 141.695 736.234 137.008C739.359 132.32 742.875 128.219 746.781 124.703C751.078 120.797 755.375 118.062 759.672 116.5C763.969 114.547 767.289 114.352 769.633 115.914C770.805 116.695 771.781 122.164 772.562 132.32C773.344 142.086 773.93 154.977 774.32 170.992C775.102 186.617 775.492 204.586 775.492 224.898C775.883 244.82 775.883 265.523 775.492 287.008C775.492 308.102 775.297 329 774.906 349.703C774.906 370.406 774.516 389.352 773.734 406.539C773.344 423.727 772.758 438.18 771.977 449.898C771.586 461.617 771 469.234 770.219 472.75ZM729.203 194.43C726.859 192.867 724.125 191.305 721 189.742C718.266 188.18 715.141 186.617 711.625 185.055C708.109 183.492 704.203 182.125 699.906 180.953C697.953 180.172 695.219 180.953 691.703 183.297C688.578 185.641 685.258 188.961 681.742 193.258C678.617 197.555 675.883 202.828 673.539 209.078C671.195 214.938 670.023 221.188 670.023 227.828C670.023 228.609 670.219 232.32 670.609 238.961C671 245.602 671.586 253.609 672.367 262.984C673.148 272.359 673.93 282.516 674.711 293.453C675.492 304.391 676.273 314.547 677.055 323.922C678.227 333.297 679.203 341.305 679.984 347.945C680.766 354.195 681.352 357.516 681.742 357.906C683.305 359.469 685.453 360.25 688.188 360.25C691.312 360.25 694.242 359.859 696.977 359.078C700.102 358.297 702.836 357.32 705.18 356.148C707.523 354.977 709.281 354 710.453 353.219C715.531 349.703 718.656 342.867 719.828 332.711C720.609 331.93 721 329.781 721 326.266C722.172 300.484 723.344 277.242 724.516 256.539C725.688 235.445 727.25 214.742 729.203 194.43Z"/>
<path d="M1006.05 43.2578C1006.05 44.4297 1004.09 49.8984 1000.19 59.6641C996.672 69.4297 991.789 81.9297 985.539 97.1641C979.289 112.398 972.062 129.781 963.859 149.312C955.656 168.844 947.258 188.766 938.664 209.078C930.07 229.391 921.477 249.703 912.883 270.016C904.289 289.938 896.281 308.102 888.859 324.508C881.828 340.914 875.773 354.781 870.695 366.109C866.008 377.438 862.883 384.859 861.32 388.375C901.555 384.469 930.07 382.125 946.867 381.344C964.055 380.172 973.234 380.172 974.406 381.344C975.969 382.906 975.969 386.617 974.406 392.477C972.844 397.945 970.5 404.195 967.375 411.227C964.25 417.867 960.93 424.312 957.414 430.562C953.898 436.422 950.969 440.719 948.625 443.453C948.234 444.234 945.109 445.016 939.25 445.797C933.781 446.188 926.945 446.578 918.742 446.969C910.93 447.359 902.141 447.75 892.375 448.141C883 448.531 874.016 448.922 865.422 449.312C856.828 449.312 849.211 449.312 842.57 449.312C836.32 449.312 832.219 449.117 830.266 448.727C827.531 448.336 824.797 446.773 822.062 444.039C819.719 440.914 817.375 437.398 815.031 433.492C813.078 429.586 811.32 425.484 809.758 421.188C808.195 416.5 807.219 412.398 806.828 408.883C806.438 405.367 808.195 396.578 812.102 382.516C816.398 368.062 821.867 350.875 828.508 330.953C835.539 311.031 843.156 289.547 851.359 266.5C859.562 243.453 867.57 221.383 875.383 200.289C883.586 178.805 890.812 159.664 897.062 142.867C903.312 125.68 907.805 113.18 910.539 105.367C891.008 106.539 874.797 107.711 861.906 108.883C849.406 109.664 839.445 110.25 832.023 110.641C824.602 111.031 819.328 111.227 816.203 111.227C813.078 111.227 811.125 110.641 810.344 109.469C808.391 107.125 806.438 102.438 804.484 95.4062C802.922 87.9844 801.75 80.1719 800.969 71.9688C800.188 63.375 799.992 55.5625 800.383 48.5312C800.773 41.1094 801.945 36.4219 803.898 34.4688C805.07 33.2969 810.734 32.3203 820.891 31.5391C831.438 30.3672 844.133 29.5859 858.977 29.1953C873.82 28.8047 889.641 28.8047 906.438 29.1953C923.625 29.1953 939.445 29.7812 953.898 30.9531C968.742 31.7344 981.047 33.2969 990.812 35.6406C1000.58 37.5938 1005.66 40.1328 1006.05 43.2578Z"/>
<path d="M1218.13 23.9219C1218.91 26.2656 1219.11 35.4453 1218.72 51.4609C1218.72 67.0859 1218.13 86.4219 1216.96 109.469C1216.18 132.125 1215.01 156.539 1213.45 182.711C1211.88 208.492 1210.12 232.906 1208.17 255.953C1206.61 278.609 1204.85 297.945 1202.9 313.961C1201.34 329.586 1199.77 338.57 1198.21 340.914C1194.3 347.164 1188.45 350.875 1180.63 352.047C1172.82 352.828 1166.96 352.828 1163.05 352.047C1161.88 351.656 1160.71 347.359 1159.54 339.156C1158.37 330.953 1157.2 320.016 1156.02 306.344C1155.24 292.672 1154.46 277.047 1153.68 259.469C1152.9 241.891 1152.31 223.922 1151.92 205.562C1151.53 186.812 1151.14 168.453 1150.75 150.484C1150.36 132.125 1150.16 115.523 1150.16 100.68C1150.16 85.8359 1150.36 73.3359 1150.75 63.1797C1151.14 53.0234 1151.73 46.5781 1152.51 43.8438C1154.07 38.375 1157.98 33.4922 1164.23 29.1953C1170.48 24.8984 1177.31 21.7734 1184.73 19.8203C1192.16 17.4766 1198.99 16.6953 1205.24 17.4766C1211.88 17.8672 1216.18 20.0156 1218.13 23.9219ZM1208.17 393.062C1209.73 395.797 1210.32 399.703 1209.93 404.781C1209.93 409.469 1209.34 414.547 1208.17 420.016C1207.39 425.094 1206.02 430.172 1204.07 435.25C1202.51 439.938 1200.75 443.844 1198.8 446.969C1197.23 449.312 1195.09 451.266 1192.35 452.828C1189.62 454.391 1186.69 455.367 1183.56 455.758C1180.44 456.539 1177.51 456.93 1174.77 456.93C1172.04 456.93 1169.89 456.93 1168.33 456.93C1165.98 456.539 1163.45 454.781 1160.71 451.656C1158.37 448.531 1156.22 444.82 1154.27 440.523C1152.7 435.836 1151.53 430.953 1150.75 425.875C1149.97 420.406 1150.16 415.328 1151.34 410.641C1152.51 406.344 1155.83 402.438 1161.3 398.922C1166.77 395.016 1172.62 392.086 1178.88 390.133C1185.52 388.18 1191.57 387.398 1197.04 387.789C1202.9 387.789 1206.61 389.547 1208.17 393.062Z"/>
</mask>
<path d="M174.062 224.312C183.047 229 192.031 234.078 201.016 239.547C210.391 245.016 218.984 250.289 226.797 255.367C234.609 260.055 241.055 264.547 246.133 268.844C251.602 272.75 255.117 275.875 256.68 278.219C258.633 281.344 259.609 286.227 259.609 292.867C259.609 299.117 259.023 306.148 257.852 313.961C257.07 321.383 255.703 328.805 253.75 336.227C251.797 343.258 249.648 348.922 247.305 353.219C244.57 358.688 238.32 365.719 228.555 374.312C219.18 382.906 208.633 391.5 196.914 400.094C185.195 408.688 173.672 416.305 162.344 422.945C151.406 429.586 143.008 433.688 137.148 435.25C132.852 436.422 126.406 437.594 117.812 438.766C109.609 439.938 101.016 440.914 92.0312 441.695C83.0469 442.477 74.8438 443.062 67.4219 443.453C60.3906 443.453 56.0938 443.062 54.5312 442.281C51.4062 440.328 48.6719 437.398 46.3281 433.492C44.375 429.586 43.3984 424.508 43.3984 418.258C44.1797 404.586 45.7422 395.211 48.0859 390.133C48.8672 388.961 49.8438 388.375 51.0156 388.375C52.1875 387.984 54.1406 387.789 56.875 387.789C59.6094 387.789 63.125 387.789 67.4219 387.789C71.7188 387.789 77.3828 387.594 84.4141 387.203C82.4609 367.281 80.7031 348.336 79.1406 330.367C77.5781 312.398 76.2109 296.578 75.0391 282.906C73.4766 266.891 72.3047 251.852 71.5234 237.789C70.7422 224.117 69.5703 208.883 68.0078 192.086C66.8359 177.633 65.4688 160.836 63.9062 141.695C62.3438 122.555 60.5859 101.852 58.6328 79.5859C55.1172 79.5859 51.0156 79.5859 46.3281 79.5859C41.6406 79.5859 36.9531 79.5859 32.2656 79.5859C27.9688 79.1953 24.2578 78.8047 21.1328 78.4141C17.6172 77.6328 15.4688 76.6562 14.6875 75.4844C13.125 73.1406 11.9531 68.8438 11.1719 62.5938C10.3906 55.9531 10 49.5078 10 43.2578C10 36.6172 11.1719 30.1719 13.5156 23.9219C15.8594 17.2812 18.5938 12.9844 21.7188 11.0312C22.5 10.6406 25.625 10.6406 31.0938 11.0312C36.5625 11.0312 43.2031 11.6172 51.0156 12.7891C58.8281 13.5703 67.2266 14.7422 76.2109 16.3047C85.5859 17.4766 94.375 18.8438 102.578 20.4062C110.781 21.5781 118.008 22.75 124.258 23.9219C130.508 25.0938 134.805 25.875 137.148 26.2656C141.055 27.0469 148.477 29.1953 159.414 32.7109C170.742 35.8359 182.852 39.5469 195.742 43.8438C208.633 48.1406 220.938 53.0234 232.656 58.4922C244.375 63.5703 252.578 68.6484 257.266 73.7266C259.219 75.6797 260.977 81.1484 262.539 90.1328C264.492 99.1172 265.859 109.078 266.641 120.016C267.812 130.953 268.203 141.305 267.812 151.07C267.812 160.445 266.836 166.695 264.883 169.82C263.32 172.164 257.852 176.266 248.477 182.125C239.102 187.984 228.75 194.039 217.422 200.289C204.531 207.32 190.078 215.328 174.062 224.312ZM129.531 212.594C134.609 210.25 141.445 205.562 150.039 198.531C159.023 191.5 167.812 183.688 176.406 175.094C185.391 166.109 193.008 157.125 199.258 148.141C205.898 138.766 209.219 130.758 209.219 124.117C209.219 122.164 207.07 119.625 202.773 116.5C198.867 113.375 193.398 110.25 186.367 107.125C179.336 104 170.938 100.875 161.172 97.75C151.797 94.2344 141.641 91.1094 130.703 88.375L129.531 212.594ZM128.945 380.758C139.883 378.414 150.234 374.703 160 369.625C169.766 364.547 178.359 359.078 185.781 353.219C193.203 346.969 199.062 340.719 203.359 334.469C207.656 328.219 209.805 322.555 209.805 317.477C209.805 312.398 206.484 306.734 199.844 300.484C193.594 294.234 185.977 287.984 176.992 281.734C168.398 275.484 159.609 269.82 150.625 264.742C141.641 259.664 134.609 255.953 129.531 253.609L128.945 380.758Z" stroke="black" stroke-width="20" mask="url(#path-1-outside-1_19_14)"/>
<path d="M355.398 450.484C352.664 451.266 349.539 450.289 346.023 447.555C342.508 444.82 338.992 441.5 335.477 437.594C332.352 433.297 329.617 428.805 327.273 424.117C324.93 419.43 323.367 415.523 322.586 412.398C319.852 378.023 317.508 347.359 315.555 320.406C313.992 293.062 312.625 268.844 311.453 247.75C310.281 226.656 309.305 208.492 308.523 193.258C308.133 177.633 307.938 164.352 307.938 153.414C307.547 128.023 307.938 110.445 309.109 100.68C310.281 93.6484 313.406 86.6172 318.484 79.5859C323.953 72.5547 329.617 66.5 335.477 61.4219C341.727 56.3438 347.391 52.4375 352.469 49.7031C357.938 46.9688 361.453 46.1875 363.016 47.3594C364.578 48.5312 365.75 55.1719 366.531 67.2812C367.312 79 367.898 94.4297 368.289 113.57C368.68 132.711 368.68 154.195 368.289 178.023C368.289 201.852 367.898 226.266 367.117 251.266C366.727 276.266 366.141 300.68 365.359 324.508C364.578 348.336 363.602 369.625 362.43 388.375C361.258 406.734 360.086 421.578 358.914 432.906C357.742 444.234 356.57 450.094 355.398 450.484Z" stroke="black" stroke-width="20" mask="url(#path-1-outside-1_19_14)"/>
<path d="M550.211 133.492C552.945 135.836 555.484 140.328 557.828 146.969C560.562 153.609 562.906 161.617 564.859 170.992C566.812 180.367 568.57 190.523 570.133 201.461C571.695 212.398 573.062 223.141 574.234 233.688C575.406 244.234 576.188 254.195 576.578 263.57C577.359 272.555 577.945 279.977 578.336 285.836C578.727 292.867 578.922 300.289 578.922 308.102C579.312 315.523 579.312 322.75 578.922 329.781C578.922 336.422 578.531 342.477 577.75 347.945C577.359 353.414 576.578 357.516 575.406 360.25C573.062 366.109 568.961 370.211 563.102 372.555C557.633 374.508 551.383 375.875 544.352 376.656C540.836 377.047 534.781 377.242 526.188 377.242C517.984 376.852 509 376.461 499.234 376.07C489.859 375.289 480.875 374.508 472.281 373.727C463.688 372.945 457.242 372.164 452.945 371.383C444.352 369.43 438.102 366.891 434.195 363.766C430.68 360.641 427.164 356.148 423.648 350.289C422.477 347.945 421.5 342.086 420.719 332.711C419.938 322.945 419.352 311.422 418.961 298.141C418.961 284.469 419.156 269.82 419.547 254.195C419.938 238.57 420.523 223.727 421.305 209.664C422.477 195.602 423.648 183.297 424.82 172.75C426.383 162.203 428.336 155.172 430.68 151.656C434.586 146.188 441.227 141.109 450.602 136.422C460.367 131.734 469.156 128.023 476.969 125.289C480.875 124.117 485.953 123.336 492.203 122.945C498.844 122.164 505.68 122.164 512.711 122.945C520.133 123.336 527.164 124.508 533.805 126.461C540.445 128.023 545.914 130.367 550.211 133.492ZM517.398 315.133C518.18 313.57 518.961 308.883 519.742 301.07C520.914 292.867 521.695 283.102 522.086 271.773C522.867 260.445 523.258 248.336 523.258 235.445C523.648 222.555 523.844 210.641 523.844 199.703C523.844 188.766 523.453 179.586 522.672 172.164C521.891 164.352 520.914 159.859 519.742 158.688C517.789 157.125 514.859 156.539 510.953 156.93C507.438 156.93 503.727 157.516 499.82 158.688C495.914 159.469 492.398 160.641 489.273 162.203C486.148 163.375 484 164.547 482.828 165.719C477.75 170.016 475.016 177.047 474.625 186.812C474.625 189.547 474.234 197.359 473.453 210.25C473.062 222.75 472.867 236.422 472.867 251.266C472.867 265.719 473.062 279.195 473.453 291.695C474.234 304.195 475.602 311.812 477.555 314.547C479.508 317.281 482.242 319.43 485.758 320.992C489.664 322.164 493.57 322.75 497.477 322.75C501.773 322.75 505.68 322.164 509.195 320.992C513.102 319.43 515.836 317.477 517.398 315.133Z" stroke="black" stroke-width="20" mask="url(#path-1-outside-1_19_14)"/>
<path d="M770.219 472.75C769.438 475.094 767.094 478.805 763.188 483.883C759.281 488.961 754.594 494.234 749.125 499.703C743.656 505.172 738.188 510.055 732.719 514.352C727.25 518.648 722.758 521.383 719.242 522.555C711.43 524.898 703.031 524.312 694.047 520.797C685.453 517.672 677.055 513.375 668.852 507.906C661.039 502.438 654.203 496.773 648.344 490.914C642.484 485.445 638.773 481.344 637.211 478.609C636.039 475.875 634.867 472.164 633.695 467.477C632.914 462.789 632.328 458.102 631.938 453.414C631.547 448.727 631.547 444.82 631.938 441.695C632.719 438.18 634.086 436.422 636.039 436.422C637.992 436.422 642.484 438.375 649.516 442.281C656.938 445.797 664.555 449.508 672.367 453.414C680.57 457.32 688.188 460.445 695.219 462.789C702.25 465.133 706.547 464.742 708.109 461.617C709.672 458.883 711.039 451.266 712.211 438.766C713.773 425.875 715.531 410.25 717.484 391.891C716.703 391.891 715.922 392.086 715.141 392.477C714.75 392.477 714.164 392.477 713.383 392.477C709.867 393.648 704.984 394.234 698.734 394.234C692.484 394.234 685.844 393.844 678.812 393.062C672.172 392.281 665.531 390.914 658.891 388.961C652.641 386.617 647.562 383.688 643.656 380.172C642.094 378.609 640.336 376.266 638.383 373.141C636.82 369.625 635.648 365.133 634.867 359.664C633.695 357.32 631.742 350.68 629.008 339.742C626.273 328.414 623.539 315.719 620.805 301.656C618.07 287.203 615.531 272.75 613.188 258.297C611.234 243.844 610.648 232.32 611.43 223.727C611.82 215.133 613.383 206.344 616.117 197.359C618.852 187.984 621.977 179.195 625.492 170.992C629.398 162.789 633.5 155.758 637.797 149.898C642.094 143.648 646.391 139.352 650.688 137.008C660.062 132.32 671.781 131.344 685.844 134.078C699.906 136.812 714.945 142.086 730.961 149.898C731.352 145.992 733.109 141.695 736.234 137.008C739.359 132.32 742.875 128.219 746.781 124.703C751.078 120.797 755.375 118.062 759.672 116.5C763.969 114.547 767.289 114.352 769.633 115.914C770.805 116.695 771.781 122.164 772.562 132.32C773.344 142.086 773.93 154.977 774.32 170.992C775.102 186.617 775.492 204.586 775.492 224.898C775.883 244.82 775.883 265.523 775.492 287.008C775.492 308.102 775.297 329 774.906 349.703C774.906 370.406 774.516 389.352 773.734 406.539C773.344 423.727 772.758 438.18 771.977 449.898C771.586 461.617 771 469.234 770.219 472.75ZM729.203 194.43C726.859 192.867 724.125 191.305 721 189.742C718.266 188.18 715.141 186.617 711.625 185.055C708.109 183.492 704.203 182.125 699.906 180.953C697.953 180.172 695.219 180.953 691.703 183.297C688.578 185.641 685.258 188.961 681.742 193.258C678.617 197.555 675.883 202.828 673.539 209.078C671.195 214.938 670.023 221.188 670.023 227.828C670.023 228.609 670.219 232.32 670.609 238.961C671 245.602 671.586 253.609 672.367 262.984C673.148 272.359 673.93 282.516 674.711 293.453C675.492 304.391 676.273 314.547 677.055 323.922C678.227 333.297 679.203 341.305 679.984 347.945C680.766 354.195 681.352 357.516 681.742 357.906C683.305 359.469 685.453 360.25 688.188 360.25C691.312 360.25 694.242 359.859 696.977 359.078C700.102 358.297 702.836 357.32 705.18 356.148C707.523 354.977 709.281 354 710.453 353.219C715.531 349.703 718.656 342.867 719.828 332.711C720.609 331.93 721 329.781 721 326.266C722.172 300.484 723.344 277.242 724.516 256.539C725.688 235.445 727.25 214.742 729.203 194.43Z" stroke="black" stroke-width="20" mask="url(#path-1-outside-1_19_14)"/>
<path d="M1006.05 43.2578C1006.05 44.4297 1004.09 49.8984 1000.19 59.6641C996.672 69.4297 991.789 81.9297 985.539 97.1641C979.289 112.398 972.062 129.781 963.859 149.312C955.656 168.844 947.258 188.766 938.664 209.078C930.07 229.391 921.477 249.703 912.883 270.016C904.289 289.938 896.281 308.102 888.859 324.508C881.828 340.914 875.773 354.781 870.695 366.109C866.008 377.438 862.883 384.859 861.32 388.375C901.555 384.469 930.07 382.125 946.867 381.344C964.055 380.172 973.234 380.172 974.406 381.344C975.969 382.906 975.969 386.617 974.406 392.477C972.844 397.945 970.5 404.195 967.375 411.227C964.25 417.867 960.93 424.312 957.414 430.562C953.898 436.422 950.969 440.719 948.625 443.453C948.234 444.234 945.109 445.016 939.25 445.797C933.781 446.188 926.945 446.578 918.742 446.969C910.93 447.359 902.141 447.75 892.375 448.141C883 448.531 874.016 448.922 865.422 449.312C856.828 449.312 849.211 449.312 842.57 449.312C836.32 449.312 832.219 449.117 830.266 448.727C827.531 448.336 824.797 446.773 822.062 444.039C819.719 440.914 817.375 437.398 815.031 433.492C813.078 429.586 811.32 425.484 809.758 421.188C808.195 416.5 807.219 412.398 806.828 408.883C806.438 405.367 808.195 396.578 812.102 382.516C816.398 368.062 821.867 350.875 828.508 330.953C835.539 311.031 843.156 289.547 851.359 266.5C859.562 243.453 867.57 221.383 875.383 200.289C883.586 178.805 890.812 159.664 897.062 142.867C903.312 125.68 907.805 113.18 910.539 105.367C891.008 106.539 874.797 107.711 861.906 108.883C849.406 109.664 839.445 110.25 832.023 110.641C824.602 111.031 819.328 111.227 816.203 111.227C813.078 111.227 811.125 110.641 810.344 109.469C808.391 107.125 806.438 102.438 804.484 95.4062C802.922 87.9844 801.75 80.1719 800.969 71.9688C800.188 63.375 799.992 55.5625 800.383 48.5312C800.773 41.1094 801.945 36.4219 803.898 34.4688C805.07 33.2969 810.734 32.3203 820.891 31.5391C831.438 30.3672 844.133 29.5859 858.977 29.1953C873.82 28.8047 889.641 28.8047 906.438 29.1953C923.625 29.1953 939.445 29.7812 953.898 30.9531C968.742 31.7344 981.047 33.2969 990.812 35.6406C1000.58 37.5938 1005.66 40.1328 1006.05 43.2578Z" stroke="black" stroke-width="20" mask="url(#path-1-outside-1_19_14)"/>
<path d="M1218.13 23.9219C1218.91 26.2656 1219.11 35.4453 1218.72 51.4609C1218.72 67.0859 1218.13 86.4219 1216.96 109.469C1216.18 132.125 1215.01 156.539 1213.45 182.711C1211.88 208.492 1210.12 232.906 1208.17 255.953C1206.61 278.609 1204.85 297.945 1202.9 313.961C1201.34 329.586 1199.77 338.57 1198.21 340.914C1194.3 347.164 1188.45 350.875 1180.63 352.047C1172.82 352.828 1166.96 352.828 1163.05 352.047C1161.88 351.656 1160.71 347.359 1159.54 339.156C1158.37 330.953 1157.2 320.016 1156.02 306.344C1155.24 292.672 1154.46 277.047 1153.68 259.469C1152.9 241.891 1152.31 223.922 1151.92 205.562C1151.53 186.812 1151.14 168.453 1150.75 150.484C1150.36 132.125 1150.16 115.523 1150.16 100.68C1150.16 85.8359 1150.36 73.3359 1150.75 63.1797C1151.14 53.0234 1151.73 46.5781 1152.51 43.8438C1154.07 38.375 1157.98 33.4922 1164.23 29.1953C1170.48 24.8984 1177.31 21.7734 1184.73 19.8203C1192.16 17.4766 1198.99 16.6953 1205.24 17.4766C1211.88 17.8672 1216.18 20.0156 1218.13 23.9219ZM1208.17 393.062C1209.73 395.797 1210.32 399.703 1209.93 404.781C1209.93 409.469 1209.34 414.547 1208.17 420.016C1207.39 425.094 1206.02 430.172 1204.07 435.25C1202.51 439.938 1200.75 443.844 1198.8 446.969C1197.23 449.312 1195.09 451.266 1192.35 452.828C1189.62 454.391 1186.69 455.367 1183.56 455.758C1180.44 456.539 1177.51 456.93 1174.77 456.93C1172.04 456.93 1169.89 456.93 1168.33 456.93C1165.98 456.539 1163.45 454.781 1160.71 451.656C1158.37 448.531 1156.22 444.82 1154.27 440.523C1152.7 435.836 1151.53 430.953 1150.75 425.875C1149.97 420.406 1150.16 415.328 1151.34 410.641C1152.51 406.344 1155.83 402.438 1161.3 398.922C1166.77 395.016 1172.62 392.086 1178.88 390.133C1185.52 388.18 1191.57 387.398 1197.04 387.789C1202.9 387.789 1206.61 389.547 1208.17 393.062Z" stroke="black" stroke-width="20" mask="url(#path-1-outside-1_19_14)"/>
</svg>
